<?xml version="1.0" encoding="UTF-8"?>
<!DOCTYPE svg PUBLIC "-//W3C//DTD SVG 1.1//EN" "http://www.w3.org/Graphics/SVG/1.1/DTD/svg11.dtd">
<svg xmlns="http://www.w3.org/2000/svg" version="1.1" width="512px" height="512px" style="shape-rendering:geometricPrecision; text-rendering:geometricPrecision; image-rendering:optimizeQuality; fill-rule:evenodd; clip-rule:evenodd" xmlns:xlink="http://www.w3.org/1999/xlink">
<g><path style="opacity:0.975" fill="#fefffe" d="M 242.5,26.5 C 340.733,25.6793 412.899,68.346 459,154.5C 485.339,215.337 487.339,277.004 465,339.5C 432.709,413.459 377.209,459.293 298.5,477C 190.294,492.969 108.127,454.469 52,361.5C 24.8342,306.015 19.1675,248.348 35,188.5C 55.3825,124.113 95.8825,76.9468 156.5,47C 184.012,34.7872 212.679,27.9539 242.5,26.5 Z M 237.5,98.5 C 303.428,94.2102 353.595,119.877 388,175.5C 406.836,212.687 411.836,251.687 403,292.5C 390.319,340.69 361.486,375.524 316.5,397C 267.926,415.792 220.592,413.126 174.5,389C 115.401,349.939 91.2348,295.106 102,224.5C 110.837,177.027 136.004,141.194 177.5,117C 196.462,107.065 216.462,100.899 237.5,98.5 Z"/></g>
<g><path style="opacity:0.97" fill="#56a441" d="M 203.5,161.5 C 205.989,161.298 208.323,161.798 210.5,163C 258.235,193.063 306.235,222.73 354.5,252C 358.661,257.071 357.661,261.071 351.5,264C 307.666,290.749 263.999,317.749 220.5,345C 215.842,347.912 211.009,350.412 206,352.5C 203.695,352.516 202.028,351.516 201,349.5C 200.333,287.833 200.333,226.167 201,164.5C 202.045,163.627 202.878,162.627 203.5,161.5 Z"/></g>
</svg>
