<?xml version="1.0" standalone="no"?>
<!DOCTYPE svg PUBLIC "-//W3C//DTD SVG 20010904//EN"
 "http://www.w3.org/TR/2001/REC-SVG-20010904/DTD/svg10.dtd">
<svg version="1.0" xmlns="http://www.w3.org/2000/svg"
 width="2083.000000pt" height="2083.000000pt" viewBox="0 0 2083.000000 2083.000000"
 preserveAspectRatio="xMidYMid meet">
<metadata>
Created by potrace 1.14, written by Peter Selinger 2001-2017
</metadata>
<g transform="translate(0.000000,2083.000000) scale(0.100000,-0.100000)"
fill="#000000" stroke="none">
<path d="M10087 19684 c-1 -1 -85 -5 -187 -9 -102 -3 -201 -8 -220 -10 -19 -2
-81 -6 -137 -9 -56 -4 -117 -9 -135 -11 -18 -2 -64 -6 -103 -10 -97 -9 -203
-20 -277 -31 -21 -3 -50 -6 -65 -8 -47 -6 -127 -18 -153 -22 -174 -28 -220
-36 -250 -40 -19 -3 -42 -7 -50 -9 -8 -2 -31 -7 -50 -10 -19 -3 -69 -13 -110
-21 -41 -9 -83 -18 -93 -20 -10 -2 -26 -5 -35 -8 -9 -3 -28 -7 -42 -10 -90
-17 -296 -69 -525 -132 -213 -59 -732 -241 -905 -316 -25 -11 -56 -25 -70 -30
-793 -330 -1614 -842 -2305 -1438 -147 -126 -167 -144 -276 -244 -138 -125
-491 -480 -619 -622 -375 -414 -662 -786 -980 -1274 -49 -75 -202 -332 -265
-445 -195 -350 -407 -809 -529 -1145 -15 -41 -32 -84 -37 -95 -5 -11 -29 -78
-53 -150 -24 -71 -46 -137 -49 -145 -14 -36 -91 -304 -148 -520 -21 -79 -85
-361 -95 -414 -3 -17 -9 -50 -15 -74 -5 -23 -12 -59 -15 -80 -3 -20 -7 -43 -9
-50 -3 -7 -9 -41 -15 -75 -5 -34 -12 -73 -14 -87 -6 -31 -45 -301 -51 -355 -3
-22 -7 -56 -10 -75 -2 -19 -7 -64 -10 -100 -3 -36 -8 -81 -10 -100 -3 -19 -7
-66 -10 -105 -3 -38 -7 -92 -9 -120 -6 -62 -16 -230 -22 -350 -5 -106 -4 -758
1 -860 15 -302 27 -471 40 -585 2 -19 7 -66 11 -105 3 -38 8 -78 10 -89 2 -10
6 -44 9 -75 3 -31 8 -67 10 -81 3 -14 7 -47 10 -75 3 -27 9 -63 12 -80 3 -16
7 -39 9 -50 1 -11 5 -33 8 -50 3 -16 14 -85 26 -153 11 -68 32 -176 45 -240
14 -64 27 -127 30 -140 2 -12 6 -30 9 -40 3 -9 7 -28 10 -42 11 -57 68 -276
111 -425 25 -88 48 -167 50 -175 10 -37 106 -323 134 -400 35 -94 107 -278
126 -325 101 -243 168 -389 296 -640 58 -115 127 -245 153 -288 25 -43 46 -81
46 -83 0 -8 185 -312 242 -396 32 -48 58 -92 58 -97 0 -5 3 -11 8 -13 4 -1 32
-39 61 -83 172 -252 436 -596 618 -805 12 -14 30 -34 40 -46 188 -218 518
-559 743 -769 548 -510 1143 -948 1762 -1297 181 -101 516 -271 678 -342 58
-26 114 -51 125 -56 11 -5 49 -21 85 -36 36 -14 79 -32 95 -39 17 -7 68 -27
115 -45 47 -18 99 -38 115 -45 17 -7 41 -16 55 -20 14 -3 34 -10 45 -16 11 -5
103 -36 205 -70 290 -95 617 -184 900 -244 121 -26 142 -30 195 -39 39 -7 137
-26 165 -31 13 -3 40 -7 60 -10 20 -3 45 -7 55 -9 24 -5 167 -26 209 -32 17
-2 69 -9 116 -14 47 -6 96 -13 110 -15 14 -2 59 -6 100 -10 41 -4 89 -8 105
-10 17 -2 68 -7 115 -10 47 -3 105 -8 130 -10 316 -27 1129 -27 1460 0 19 1
76 6 125 10 50 3 108 8 130 10 101 10 162 17 185 20 14 2 50 7 80 10 30 4 85
11 123 16 37 5 89 11 115 14 26 3 54 8 62 10 8 3 33 7 55 10 22 3 51 8 65 10
14 3 41 7 60 10 61 10 243 45 310 60 36 8 76 17 90 19 14 2 43 9 65 14 22 6
51 13 65 16 72 13 445 114 545 147 33 11 67 22 76 24 99 21 671 235 847 316
35 16 65 29 67 29 8 0 197 91 369 177 548 274 1053 601 1586 1027 30 24 65 52
77 63 11 10 40 34 63 52 24 19 48 40 54 45 6 6 47 42 91 81 44 38 87 76 96 85
9 8 59 53 110 100 121 110 472 461 569 569 41 46 86 95 100 110 14 14 68 76
119 136 52 61 103 121 115 135 12 14 48 59 81 100 33 41 63 77 66 80 27 22
321 430 444 615 129 195 179 273 260 413 19 33 112 198 145 257 42 75 194 380
249 498 49 105 175 402 186 437 4 14 13 39 21 55 68 153 272 786 310 965 3 14
14 59 25 101 11 42 21 85 24 95 2 10 15 73 30 139 40 182 101 528 120 673 8
66 16 125 20 152 5 33 23 199 30 275 3 33 8 83 10 110 5 50 7 82 22 295 10
154 10 1012 0 1175 -16 239 -30 411 -42 505 -3 19 -7 63 -11 98 -3 35 -7 72
-9 82 -2 10 -6 45 -10 77 -3 32 -8 65 -10 73 -2 8 -7 42 -10 75 -4 32 -8 62
-10 65 -2 3 -6 24 -9 46 -9 69 -50 300 -71 394 -3 14 -8 41 -11 60 -3 19 -8
38 -10 41 -2 4 -6 24 -10 45 -10 65 -82 348 -134 529 -113 392 -266 811 -431
1177 -110 244 -362 718 -474 893 -19 31 -35 58 -35 60 0 11 -356 543 -371 555
-4 3 -17 21 -30 40 -44 65 -128 174 -272 354 -249 312 -690 783 -977 1043 -30
28 -82 75 -115 105 -125 114 -415 358 -514 431 -31 23 -58 45 -61 48 -6 7
-160 121 -270 199 -152 109 -565 377 -620 403 -8 4 -37 21 -65 37 -27 17 -59
35 -70 41 -11 5 -29 15 -40 22 -144 87 -473 250 -780 387 -232 103 -671 264
-945 345 -102 31 -409 114 -445 121 -11 2 -56 13 -100 23 -84 21 -451 95 -520
106 -22 3 -51 8 -65 10 -69 12 -306 45 -390 55 -52 6 -108 13 -125 15 -16 2
-61 7 -100 10 -38 3 -83 8 -100 10 -16 2 -77 7 -135 11 -58 3 -123 8 -145 9
-164 12 -879 27 -888 19z m613 -2848 c185 -11 309 -20 410 -32 63 -7 135 -16
160 -19 14 -2 61 -9 105 -15 44 -6 127 -20 185 -30 58 -11 116 -21 130 -24 33
-6 197 -42 280 -62 233 -56 635 -187 825 -269 17 -7 58 -25 93 -39 413 -173
903 -461 1282 -756 248 -193 382 -312 625 -555 164 -163 229 -232 323 -340 20
-23 110 -130 132 -158 8 -10 23 -28 34 -40 119 -139 377 -517 512 -752 328
-571 581 -1259 699 -1910 14 -73 45 -268 50 -305 10 -84 16 -135 20 -160 4
-24 20 -193 30 -310 24 -283 24 -874 0 -1155 -2 -22 -6 -76 -10 -120 -4 -44
-9 -89 -10 -100 -2 -11 -6 -49 -9 -85 -4 -36 -8 -76 -11 -90 -3 -14 -7 -45
-10 -69 -5 -42 -32 -214 -40 -256 -119 -633 -285 -1138 -542 -1650 -145 -290
-208 -398 -396 -680 -119 -179 -367 -500 -467 -606 -8 -9 -51 -56 -95 -104
-100 -111 -315 -326 -425 -425 -46 -41 -95 -86 -109 -99 -14 -12 -46 -39 -70
-60 -67 -54 -115 -95 -121 -101 -5 -6 -121 -95 -219 -167 -101 -75 -374 -257
-469 -313 -51 -30 -108 -63 -125 -74 -128 -75 -285 -154 -542 -271 -160 -73
-475 -187 -715 -259 -204 -61 -482 -123 -770 -171 -24 -4 -221 -31 -290 -40
-19 -2 -69 -7 -110 -11 -41 -3 -88 -8 -105 -9 -257 -26 -965 -27 -1210 -1 -16
2 -64 6 -105 10 -76 7 -205 22 -270 32 -127 18 -171 25 -220 33 -103 18 -225
42 -309 62 -47 11 -92 21 -100 23 -77 15 -395 108 -540 158 -146 50 -403 152
-516 204 -33 15 -62 28 -65 29 -3 0 -73 35 -157 77 -304 153 -618 349 -892
556 -104 78 -323 256 -367 297 -6 5 -46 42 -90 80 -87 78 -361 350 -439 436
-203 225 -423 501 -540 679 -17 25 -33 47 -36 50 -7 6 -178 280 -209 335 -125
222 -236 443 -314 630 -26 61 -51 119 -55 130 -69 157 -237 682 -266 834 -1 9
-8 34 -13 56 -6 22 -13 51 -16 65 -2 14 -9 45 -15 70 -5 25 -12 61 -16 80 -3
19 -10 55 -15 80 -5 25 -12 63 -15 85 -3 22 -10 69 -16 105 -37 226 -63 488
-76 765 -13 268 -7 748 12 960 2 28 6 79 9 115 10 115 16 167 62 495 2 17 6
41 9 55 2 14 7 36 10 50 6 30 16 88 20 115 34 211 160 661 269 958 101 275
329 762 418 889 10 14 18 28 18 31 0 10 114 192 198 316 153 228 382 522 533
686 20 22 51 56 69 75 94 103 273 279 426 421 86 79 295 253 404 335 58 43
107 81 110 84 31 31 358 244 510 333 299 173 538 287 911 431 118 46 455 153
539 171 8 2 50 13 93 24 71 19 265 61 342 75 17 3 41 8 55 11 34 7 208 36 245
40 17 2 48 6 70 9 97 13 123 16 180 21 81 7 171 15 220 20 22 3 114 7 205 11
91 3 166 7 167 8 5 4 436 -3 543 -8z"/>
<path d="M8310 14177 c-29 -15 -54 -40 -74 -71 l-29 -49 0 -3708 0 -3709 29
-46 c40 -66 100 -97 174 -92 51 4 66 10 160 68 8 5 105 65 215 133 110 68 306
189 435 269 129 79 921 568 1760 1087 839 518 1532 947 1540 952 8 5 113 70
234 144 120 74 220 135 221 135 2 0 30 17 62 38 32 20 67 42 78 49 11 7 102
63 203 125 100 62 235 145 300 185 64 39 122 75 127 80 6 4 22 15 37 23 14 8
127 78 252 155 125 77 266 164 314 193 48 30 99 65 114 79 70 66 68 204 -4
270 -13 11 -174 114 -358 228 -184 114 -348 216 -365 226 -16 10 -39 23 -50
29 -11 6 -39 23 -62 38 -23 15 -82 52 -130 81 -435 270 -755 468 -788 488 -89
53 -127 77 -481 296 -203 126 -378 234 -389 240 -11 7 -53 33 -94 60 -40 26
-76 47 -78 47 -2 0 -23 12 -46 28 -23 15 -51 32 -62 39 -31 19 -326 201 -454
280 -64 40 -144 89 -179 110 -34 21 -145 90 -247 153 -102 63 -193 120 -203
125 -10 6 -78 48 -152 94 -216 134 -321 199 -560 346 -124 76 -247 152 -275
170 -55 35 -573 355 -640 395 -23 14 -92 57 -154 95 -174 109 -184 115 -218
130 -48 22 -113 19 -163 -8z"/>
</g>
</svg>
